<svg t="1753429007849" class="icon" viewBox="0 0 1024 1024" version="1.1" xmlns="http://www.w3.org/2000/svg" p-id="5279" width="200" height="200"><path d="M871.234663 429.412269L693.099957 983.584728l-115.315315 37.999142c-5.491205 1.976834-10.543115 2.635779-15.375376 1.976834L304.761905 998.960103c-18.45045-1.317889-29.872158-11.641356-34.045474-30.970399L153.424281 379.99142c-1.317889-6.15015-0.658945-12.739597 1.976834-19.548692L290.48477 22.623767C296.634921 7.468039 308.276276 0 325.408837 0h293.450022c8.346632 0 15.814672 2.41613 22.623766 7.248391v-2.196482l121.465466 77.316173 108.286572 347.044187z m-198.781639-25.698841l-82.368082-329.47233H350.229086L228.543973 378.014586c0.658945 3.514372 18.670099 91.154011 54.033462 263.138567 35.363363 171.984556 54.472758 267.531532 57.108537 286.860575l198.781638 18.45045c49.640498-198.342342 94.229086-379.332475 133.985414-542.75075z m-192.41184-50.519091h99.93994l-34.924067 49.42085 28.773917 44.36894-98.841699-1.098241v440.833977l-42.172458-29.872158-41.293865 23.722008 1.976833-435.56242-100.818532-1.098241 29.872158-46.345774-23.722008-48.322609 99.93994 4.173316 5.051909-224.48048 37.120549 23.722008L482.237666 128.933505l-2.196482 224.260832z" fill="#1296db" p-id="5280"></path></svg>